<svg width="462" height="494" viewBox="0 0 462 494" fill="none" xmlns="http://www.w3.org/2000/svg">
<path id="matter-path" fill-rule="evenodd" clip-rule="evenodd" d="M260.082 172.435L283.354 264.439L318.06 279.848C326.67 283.655 332.678 290.911 335.145 299.288H335.234L357.027 372.613C357.296 373.553 357.52 374.449 357.699 375.39C386.756 369.029 415.499 362.49 443.883 355.771C448.098 354.785 458.86 351.202 461.371 355.726C462.447 357.652 462.178 360.877 459.981 365.625C444.69 387.305 412.105 427.942 250.365 485.276C240.5 487.5 226.513 489.015 217.365 489.776C219.338 490.448 140.907 493.776 140.907 493.776C110.594 491.806 38.3902 487.416 18.9743 480.383C4.53564 475.143 1.26229 475.053 0.5 459.465C0.230957 454.359 0.45516 448.984 0.634521 444.729C0.813883 440.742 13.2795 438.906 16.1045 438.503C55.878 432.456 95.0686 426.05 133.721 419.331C133.99 411.985 133.811 404.639 133.631 397.428C133.048 373.867 132.466 351.292 142.958 329.209L165.513 281.729C166.589 279.445 167.934 277.384 169.414 275.503L152.778 184.932L111.48 196.937C78.2534 206.567 59.1066 178.214 30.2741 135.526L28.2563 132.525C21.1715 122.044 23.9516 107.8 34.4443 100.723C44.937 93.6454 59.1962 96.4225 66.281 106.904L68.2989 109.905C85.9212 136.019 97.6693 153.399 98.7904 153.04L164.616 133.914C180.579 123.791 205.197 119.177 224.12 120.924C248.289 120.028 270.44 125.941 290.887 135.929C316.67 148.516 338.911 167.284 358.776 186.411C367.878 195.145 368.147 209.658 359.403 218.751C350.659 227.844 336.131 228.112 327.029 219.378C309.899 202.894 291.111 186.903 270.799 176.959C267.301 175.302 263.714 173.734 260.082 172.435ZM231.877 308.649C227.796 309.679 223.716 310.71 219.591 311.785L198.829 355.547C194.525 364.64 194.928 379.959 195.332 395.994C195.422 400.026 195.556 404.147 195.601 408.223C229.949 401.817 263.848 395.143 297.344 388.245L280.125 330.284L235.33 310.396C234.074 309.859 232.953 309.276 231.877 308.649ZM176.768 2C206.721 -4.18136 236.002 15.0794 242.145 45.0008C248.333 74.9221 229.052 104.172 199.099 110.353C169.145 116.534 139.864 97.2736 133.721 67.3522C127.533 37.386 146.815 8.13657 176.768 2Z" fill="black"/>
</svg>
